PathFileType	4	(X/Y/Z)	 s09c0001.trc
DataRate	CameraRate	NumFrames	NumMarkers	Units	OrigDataRate	OrigDataStartFrame	OrigNumFrames
200	200	5	49	mm	200	1251	2000
Frame#	Time	racr			lacr			c7			jug			rlel			rdr			llel			ldr			s2			lic			ric			lasi			rasi			rpsi			lpsi			rgt			lgt			rth1			rth2			rth3			rth4			rlfc			rmfc			rsh1			rsh2			rsh3			rsh4			rlmal			rmmal			rcal			rtoe			rmt5			rmt1			lth1			lth2			lth4			lth3			llfc			lmfc			llmal			lmmal			lcal			lmt1			lmt5			lsh1			lsh2			lsh3			lsh4			ltoe			
		X1	Y1	Z1	X2	Y2	Z2	X3	Y3	Z3	X4	Y4	Z4	X5	Y5	Z5	X6	Y6	Z6	X7	Y7	Z7	X8	Y8	Z8	X9	Y9	Z9	X10	Y10	Z10	X11	Y11	Z11	X12	Y12	Z12	X13	Y13	Z13	X14	Y14	Z14	X15	Y15	Z15	X16	Y16	Z16	X17	Y17	Z17	X18	Y18	Z18	X19	Y19	Z19	X20	Y20	Z20	X21	Y21	Z21	X22	Y22	Z22	X23	Y23	Z23	X24	Y24	Z24	X25	Y25	Z25	X26	Y26	Z26	X27	Y27	Z27	X28	Y28	Z28	X29	Y29	Z29	X30	Y30	Z30	X31	Y31	Z31	X32	Y32	Z32	X33	Y33	Z33	X34	Y34	Z34	X35	Y35	Z35	X36	Y36	Z36	X37	Y37	Z37	X38	Y38	Z38	X39	Y39	Z39	X40	Y40	Z40	X41	Y41	Z41	X42	Y42	Z42	X43	Y43	Z43	X44	Y44	Z44	X45	Y45	Z45	X46	Y46	Z46	X47	Y47	Z47	X48	Y48	Z48	X49	Y49	Z49	
1251	6.2550	279.393533	1352.809947	380.572094	280.624790	1334.675729	-12.079321	227.574884	1401.792603	181.054702	350.890886	1350.799321	180.063253	294.980948	1092.614119	447.178884	360.718778	879.066040	577.144690	272.730841	1050.406776	-46.742451	398.302371	896.205690	-195.049908	220.581017	941.010387	184.403929	350.534942	990.762971	47.745850	338.383560	1002.648413	337.605655	408.286734	955.145364	79.045547	398.582013	966.215985	318.899275	223.846922	978.318727	243.900544	224.478045	974.281624	133.514093	324.699392	846.898672	385.755683	329.228697	836.771111	10.495623	348.053051	716.409148	381.605621	363.807588	630.943963	368.092339	332.019506	548.422873	358.529009	394.434516	629.484426	348.331058	318.717364	451.007336	334.832099	301.466376	431.028987	236.821924	277.967731	361.133789	367.953189	302.123413	274.068886	359.623368	279.141346	189.279643	361.207301	327.827814	276.916762	329.626524	276.782650	86.745012	360.322974	286.099495	93.479572	283.758658	219.180528	32.027810	318.050969	471.928066	86.084485	354.343808	388.186089	49.249410	407.101491	400.995773	39.282319	297.137552	339.814759	710.666467	9.038149	354.924921	628.992888	26.045982	390.636254	626.985292	39.872571	326.365046	543.753847	34.658809	308.492697	449.206367	46.953274	317.279201	429.036691	140.083113	268.575212	84.951003	21.756138	291.183279	96.194666	92.448608	218.711523	26.704114	68.093295	406.278728	43.995001	87.235146	381.418013	33.826352	-18.401518	277.767696	355.132787	17.451230	295.719402	270.477082	21.381071	274.239005	198.343279	14.920510	322.872322	270.764743	50.449717	472.486928	79.182126	36.422926	
1252	6.2600	279.371836	1352.812737	380.582332	280.627609	1334.647090	-12.086185	227.573744	1401.781042	181.020020	350.884061	1350.793919	180.041618	294.960494	1092.618898	447.177003	360.705633	879.061362	577.140691	272.714201	1050.395198	-46.738441	398.294300	896.205365	-195.043936	220.592491	941.035256	184.401907	350.530523	990.752600	47.737472	338.344641	1002.647161	337.584342	408.279968	955.151814	79.035629	398.571855	966.212166	318.893021	223.852587	978.290187	243.894976	224.457567	974.280201	133.503367	324.707446	846.906536	385.754868	329.203197	836.758771	10.504071	348.046281	716.416571	381.599757	363.807442	630.948532	368.086323	332.016917	548.419901	358.517868	394.450534	629.485294	348.316641	318.715717	451.011369	334.843598	301.449907	431.015800	236.810258	277.966212	361.138252	367.946543	302.129248	274.050008	359.610024	279.148688	189.284109	361.208020	327.837272	276.898738	329.593908	276.778743	86.727975	360.326834	286.115820	93.464711	283.750757	219.180698	32.026776	318.050896	471.923448	86.090226	354.332497	388.186351	49.260459	407.101069	401.022035	39.279127	297.143153	339.813904	710.659966	9.025969	354.910501	629.003566	26.022308	390.624681	627.001742	39.849800	326.354905	543.757856	34.665920	308.507422	449.211282	46.953212	317.259536	429.023616	140.071476	268.589255	84.948070	21.765414	291.178569	96.190941	92.450653	218.691602	26.725521	68.114298	406.259264	44.010702	87.231367	381.463205	33.853216	-18.406163	277.755506	355.131075	17.427116	295.743068	270.514794	21.346309	274.308077	198.351112	14.837119	322.875699	270.771581	50.444836	472.504885	79.185594	36.395184	
1253	6.2650	279.357372	1352.816079	380.573114	280.608317	1334.641958	-12.100693	227.535004	1401.775412	181.039121	350.853359	1350.792904	180.033129	294.946126	1092.628319	447.189401	360.703122	879.055667	577.139285	272.691721	1050.401083	-46.749191	398.293568	896.207547	-195.040349	220.563735	941.011574	184.405261	350.511667	990.757473	47.738856	338.341759	1002.647186	337.581835	408.256805	955.158750	79.023459	398.566523	966.205760	318.887427	223.831659	978.297661	243.877463	224.457695	974.280324	133.510826	324.696082	846.903342	385.758106	329.198782	836.762793	10.475966	348.058118	716.409311	381.598332	363.806499	630.951804	368.083700	332.028487	548.424811	358.524485	394.427221	629.487543	348.308227	318.721436	450.998535	334.833667	301.446953	431.016267	236.807355	277.963777	361.132382	367.953078	302.126403	274.076258	359.610528	279.144515	189.284955	361.202933	327.800219	276.886338	329.600147	276.788446	86.748723	360.329453	286.122411	93.474769	283.765667	219.184583	32.004817	318.052236	471.928073	86.093765	354.339733	388.174186	49.257275	407.096109	401.010418	39.279369	297.147789	339.802314	710.660450	9.020661	354.901755	628.997826	26.022159	390.640305	626.991003	39.845185	326.338046	543.758443	34.643043	308.479902	449.193020	46.938421	317.271056	429.021936	140.073153	268.570463	84.949888	21.759027	291.191716	96.173893	92.447134	218.711813	26.704887	68.093013	406.279189	43.995394	87.235084	381.463204	33.853212	-18.406151	277.751402	355.142739	17.423156	295.708640	270.512389	21.343265	274.258912	198.361981	14.878186	322.872055	270.788765	50.443263	472.493546	79.161792	36.387938	
1254	6.2700	279.350459	1352.804543	380.566300	280.578002	1334.639925	-12.121983	227.508847	1401.785092	181.017523	350.833216	1350.801363	180.019957	294.948843	1092.617399	447.190410	360.684723	879.060091	577.148321	272.684107	1050.391194	-46.745587	398.298316	896.205372	-195.039077	220.559861	941.010563	184.385659	350.492075	990.753181	47.726738	338.317222	1002.648601	337.569096	408.240665	955.157355	79.023481	398.560024	966.208078	318.860000	223.828943	978.277519	243.881473	224.442929	974.266752	133.513090	324.683550	846.898833	385.738849	329.195456	836.770884	10.464553	348.047765	716.415591	381.598604	363.797301	630.948356	368.073212	332.026978	548.428169	358.517784	394.439160	629.480893	348.297840	318.719746	450.997554	334.812966	301.443002	431.009241	236.799714	277.956618	361.136912	367.947860	302.130813	274.060793	359.614477	279.130141	189.298363	361.209147	327.839566	276.904576	329.597227	276.778747	86.733617	360.323249	286.112480	93.467697	283.769164	219.145537	32.036096	318.052958	471.910691	86.086544	354.327955	388.183193	49.244184	407.092051	401.011126	39.275891	297.146795	339.801888	710.671129	9.011548	354.901984	629.011751	25.996495	390.612668	626.994059	39.824878	326.331368	543.754975	34.645260	308.463222	449.119611	47.029472	317.266543	429.028832	140.067042	268.591723	84.943140	21.765600	291.190218	96.176044	92.442149	218.690776	26.717386	68.097404	406.277851	44.012311	87.232623	381.467018	33.819633	-18.405635	277.756613	355.130032	17.432116	295.692855	270.484127	21.355264	274.208592	198.346880	14.878488	322.840024	270.755852	50.437511	472.503138	79.164816	36.390324	
1255	6.2750	279.333174	1352.809224	380.559383	280.564439	1334.657765	-12.117833	227.496275	1401.773270	181.003811	350.798846	1350.777621	180.014850	294.929139	1092.620257	447.194375	360.680712	879.074270	577.145750	272.675159	1050.389259	-46.741485	398.291559	896.204654	-195.033405	220.556042	940.994966	184.368072	350.483376	990.765176	47.723201	338.324965	1002.639086	337.541576	408.217831	955.153654	78.995508	398.559042	966.212936	318.856577	223.805285	978.276177	243.875200	224.437454	974.253385	133.489110	324.678116	846.895389	385.737919	329.192206	836.765125	10.458565	348.047878	716.407813	381.568181	363.811080	630.941895	368.055134	332.044987	548.429469	358.510778	394.426837	629.488320	348.309151	318.724713	451.011765	334.823120	301.454939	431.019594	236.787349	277.969150	361.138340	367.929997	302.125339	274.062386	359.588368	279.131243	189.283871	361.206485	327.774122	276.885614	329.564836	276.784819	86.749060	360.325064	286.111280	93.467418	283.764767	219.180230	32.037692	318.046934	471.908304	86.092943	354.333328	388.172046	49.247609	407.085974	400.989957	39.276189	297.133236	339.795420	710.663203	9.008537	354.905463	629.007273	25.994336	390.604495	627.005499	39.805707	326.353743	543.759656	34.631488	308.492443	449.207037	46.953284	317.269694	429.029233	140.061970	268.554044	84.965647	21.767363	291.180335	96.187862	92.450076	218.700671	26.709967	68.092677	406.269654	44.007648	87.226777	381.463202	33.853205	-18.406128	277.761370	355.130949	17.426520	295.739312	270.486354	21.356372	274.276076	198.344235	14.830320	322.838636	270.761304	50.437436	472.503833	79.196419	36.395955	
